<?xml version="1.0" standalone="no"?>
<!DOCTYPE svg PUBLIC "-//W3C//DTD SVG 20010904//EN"
 "http://www.w3.org/TR/2001/REC-SVG-20010904/DTD/svg10.dtd">
<svg version="1.0" xmlns="http://www.w3.org/2000/svg"
 width="200.000000pt" height="200.000000pt" viewBox="0 0 200.000000 200.000000"
 preserveAspectRatio="xMidYMid meet">

<g transform="translate(0.000000,200.000000) scale(0.100000,-0.100000)"
fill="#000000" stroke="none">
<path d="M0 1000 l0 -1000 1000 0 1000 0 0 1000 0 1000 -1000 0 -1000 0 0
-1000z m466 166 c-9 -31 -23 -81 -32 -112 -9 -30 -18 -53 -20 -51 -3 3 10 55
27 116 18 61 35 109 37 106 2 -2 -3 -29 -12 -59z m-94 -19 l-32 -33 30 -32
c27 -29 27 -29 -7 3 l-37 35 29 30 c16 16 33 30 39 30 5 0 -4 -15 -22 -33z
m160 6 c15 -15 28 -32 28 -38 0 -14 -58 -71 -65 -64 -3 3 9 18 25 34 l30 29
-32 33 c-38 39 -26 45 14 6z m176 18 c8 -5 12 -21 10 -37 -3 -27 -6 -29 -50
-32 -40 -3 -48 -6 -48 -23 0 -10 -4 -19 -10 -19 -11 0 -14 103 -3 113 9 10 85
8 101 -2z m157 -4 c22 -17 14 -67 -12 -67 -14 0 -14 -2 2 -20 10 -11 14 -20 8
-20 -5 0 -18 9 -28 20 -25 28 -62 26 -68 -2 -2 -13 -5 5 -6 40 l-1 62 43 0
c24 0 51 -6 62 -13z m164 -1 c7 -8 11 -34 9 -58 l-3 -43 -54 -3 c-37 -2 -57 1
-62 10 -13 20 -11 82 3 96 17 17 93 15 107 -2z m161 4 c0 -5 -22 -10 -50 -10
l-50 0 0 -44 0 -45 53 -4 c50 -4 50 -4 -8 -3 l-60 1 -3 43 c-2 24 2 50 9 58
13 16 109 20 109 4z m144 4 c12 -5 16 -20 16 -61 l0 -54 -57 3 -58 3 -3 43
c-2 24 2 50 9 58 12 14 65 19 93 8z m160 0 c12 -5 16 -20 16 -60 l0 -54 -60 0
-60 0 0 53 c0 30 3 57 7 60 8 9 76 9 97 1z m164 -6 c7 -7 12 -34 12 -60 l0
-48 -54 0 c-30 0 -57 4 -60 8 -3 5 19 7 49 4 51 -4 55 -3 55 17 0 18 -6 21
-47 23 l-48 1 43 4 c35 3 42 8 42 25 0 19 -5 20 -50 16 -41 -4 -48 -3 -39 8
14 17 81 18 97 2z"/>
<path d="M620 1140 c0 -17 7 -20 45 -20 38 0 45 3 45 20 0 17 -7 20 -45 20
-38 0 -45 -3 -45 -20z"/>
<path d="M770 1140 c0 -17 7 -20 45 -20 38 0 45 3 45 20 0 17 -7 20 -45 20
-38 0 -45 -3 -45 -20z"/>
<path d="M930 1124 l0 -36 40 32 c22 17 40 34 40 36 0 2 -18 4 -40 4 -39 0
-40 -1 -40 -36z"/>
<path d="M975 1105 l-40 -34 43 -1 c41 0 42 0 42 35 0 19 -1 35 -2 35 -2 0
-21 -16 -43 -35z"/>
<path d="M1250 1125 l0 -36 40 32 c22 18 40 34 40 36 0 2 -18 3 -40 3 -39 0
-40 -1 -40 -35z"/>
<path d="M1291 1105 l-44 -35 47 0 c46 0 46 0 46 35 0 19 -1 35 -2 35 -2 0
-23 -16 -47 -35z"/>
<path d="M1410 1115 l0 -45 45 0 45 0 0 45 0 45 -45 0 -45 0 0 -45z"/>
</g>
</svg>
